# xmcd
#
# Track frame offsets:
#	150
#	17861
#	33521
#	46568
#	62054
#	78774
#	96591
#	115495
#	132220
#	149040
#	171624
#	197799
#
# Disc length: 2773 seconds
# Revision: 0
# Processed by: cddbd v1.5.2PL0 Copyright (c) Steve Scherf et al.
# Submitted via: dBpowerAMP V12.0
#
DISCID=af0ad30c
DTITLE=Long Tall Deb - Raise Your Hands
DYEAR=2013
DGENRE=Blues
TTITLE0=What Could a Good Woman Do
TTITLE1=Hush Your Mouth
TTITLE2=Train to Tucson
TTITLE3=Let's Get Lost
TTITLE4=The Last Time
TTITLE5=Coa Breeze
TTITLE6=Married to the Blues
TTITLE7=Finally Forgot Your Name
TTITLE8=Raise Your Hands
TTITLE9=Muddy Jesus
TTITLE10=To Find His Home
TTITLE11=New Coat of Paint
EXTD=
EXTT0=
EXTT1=
EXTT2=
EXTT3=
EXTT4=
EXTT5=
EXTT6=
EXTT7=
EXTT8=
EXTT9=
EXTT10=
EXTT11=
PLAYORDER=
